
<svg
   xmlns="http://www.w3.org/2000/svg"
   id="svg2"
   version="1.1"
   width="100%"
   height="100%"
   xml:space="preserve"
   viewBox="0 0 300 200"><g
     id="g12"
     transform="matrix(1.5,0,0,-1.25,220,600)"><path
       style="fill:#096aa1;fill-opacity:1;fill-rule:nonzero;stroke:none"
       d="m -27.255416,472.14713 -4.2,-5.775 c -5.61384,-8.262 -6.14484,-18.52399 -2.25,-27.65 4.1052,-9.684 12.50276,-17.3 22.325,-20.9 0.405,-0.1524 0.81712,-0.28939 1.225,-0.425 l 0.55,-0.175 c 0.58272,-0.1812 1.15096,-0.386 1.75,-0.5 27.14976,-5.244 34.5166,13.9228 36.475,16.75 -6.4524,-9.2892 -17.29776,-11.5054 -30.6,-8.275 -1.04568,0.252 -2.1932,0.6186 -3.2,0.975 -1.30452,0.4668 -2.58192,1 -3.825,1.6 -2.3634,1.1328 -4.61164,2.5232 -6.7,4.1 -11.901,9.03 -19.3134,26.2446 -11.55,40.275 z m -30.8,-6.725 -7.775,-10.975 c -9.52452,-13.704 -9.00132,-32.05519 -1.575,-46.55 1.24644,-2.4312 2.63952,-4.7786 4.2,-7.025 1.42776,-2.0436 3.03404,-4.4846 4.925,-6.125 0.68952,-0.7572 1.3966,-1.4966 2.125,-2.225 l 0.575,-0.55 c 0.70872,-0.69 1.4268,-1.365 2.175,-2.025 l 0.07496,-0.075 0.02496,-0.025 c 0.82548,-0.7224 1.6824,-1.4136 2.55,-2.1 l 0.575,-0.45 c 0.87096,-0.6672 1.76564,-1.326 2.675,-1.95 l 0.07496,-0.075 c 0.3984,-0.2784 0.82048,-0.5348 1.225,-0.8 l 0.575,-0.375 c 0.65064,-0.4176 1.30804,-0.8124 1.975,-1.2 l 0.275,-0.175 c 0.5766,-0.33 1.1608,-0.6582 1.75,-0.975 l 0.625,-0.325 c 0.40788,-0.21 0.81388,-0.421 1.225,-0.625 l 0.175,-0.1 c 0.83808,-0.414 1.689,-0.797 2.55,-1.175 l 0.575,-0.225 c 0.69276,-0.2916 1.3724,-0.5848 2.075,-0.85 0.29772,-0.1128 0.59856,-0.2182 0.9,-0.325 0.6342,-0.2364 1.28096,-0.4578 1.925,-0.675 0.2916,-0.0936 0.58724,-0.1838 0.875,-0.275 0.91644,-0.2844 1.82352,-0.6416 2.775,-0.8 49.17096,-8.14572 60.52512,29.69988 60.52512,29.69988 -10.2336,-14.7408 -30.05564,-21.7662 -51.2,-16.275 -0.94212,0.246 -1.8808,0.5084 -2.8,0.8 l -0.825,0.275 c -0.65388,0.2124 -1.30272,0.4422 -1.95,0.675 -0.29484,0.1104 -0.5834,0.2122 -0.875,0.325 -0.70548,0.2688 -1.41048,0.556 -2.1,0.85 l -0.575,0.225 c -0.86112,0.3816 -1.7082,0.7824 -2.55,1.2 -0.43356,0.21 -0.87256,0.4328 -1.3,0.65 l -0.725,0.375 c -0.5508,0.2988 -1.11276,0.6106 -1.65,0.925 l -0.375,0.225 c -0.66708,0.3924 -1.32724,0.7848 -1.975,1.2 l -0.6,0.4 c -0.42756,0.2784 -0.85728,0.5644 -1.275,0.85 -0.90936,0.6252 -1.7824,1.2888 -2.65,1.95 l -0.6,0.45 c -9.2592,7.3044 -16.60692,17.3006 -20.1,28.625 -3.65532,11.7456 -2.86112,24.9246 3.475,35.625 z m -38.375,-13.875 -10.275004,-13.05 c -13.17,-18.9264 -11.53387,-43.5594 -1.475,-63.675 0.23952,-0.4788 0.50064,-0.9522 0.75,-1.425 0.15852,-0.3048 0.28824,-0.606 0.45,-0.9 l 0.3,-0.525 c 0.17148,-0.3204 0.35016,-0.6142 0.525,-0.925 0.31728,-0.5532 0.64788,-1.1028 0.975,-1.65 0.18144,-0.3012 0.34068,-0.5988 0.525,-0.9 0.366,-0.5856 0.74628,-1.1704 1.125,-1.75 l 0.475,-0.725 c 0.52776,-0.78359 1.07468,-1.5546 1.625,-2.325 l 0.025,-0.075 0.275,-0.375 c 0.47916,-0.6612 0.97664,-1.3068 1.475004,-1.95 l 0.55,-0.7 c 0.44664,-0.5604 0.91516,-1.1182 1.375,-1.675 l 0.5,-0.625 c 0.6216,-0.7284 1.25596,-1.4408 1.9,-2.15 l 0.05,-0.05 0.07496,-0.075 c 0.62808,-0.6864 1.27436,-1.3542 1.925,-2.025 l 0.6,-0.625 c 0.5082,-0.5076 1.03196,-1.002 1.55,-1.5 l 0.62504,-0.60008 c 0.69336,-0.6504 1.3842,-1.301 2.1,-1.925 l 0.05,-0.025 0.35,-0.325 c 0.6282,-0.5436 1.2776,-1.0696 1.925,-1.6 l 0.775,-0.625 c 0.52452,-0.4212 1.05952,-0.842 1.6,-1.25 l 0.85,-0.65004 c 0.59256,-0.4368 1.19772,-0.8824 1.8,-1.3 l 0.65,-0.45 0.175,-0.125 c 0.57324,-0.3912 1.1674,-0.7708 1.75,-1.15 l 0.75,-0.5 c 0.89664,-0.5664 1.80532,-1.1338 2.725,-1.675 l 0.75,-0.425 c 0.6768,-0.3888 1.33884,-0.778 2.025,-1.15 0.37224,-0.2016 0.77452,-0.3806 1.15,-0.575 0.48564,-0.2556 0.955,-0.5004 1.45,-0.75 l 0.35,-0.175 0.575,-0.275 c 0.76692,-0.366 1.54452,-0.7282 2.325,-1.075 l 0.5,-0.225 c 0.89016,-0.3924 1.79016,-0.7662 2.7,-1.125 l 0.65,-0.25 c 0.84468,-0.324 1.69548,-0.6512 2.55,-0.95 l 0.325,-0.125 c 0.94224,-0.3264 1.89468,-0.6274 2.85,-0.925 l 0.675,-0.2 c 0.97128,-0.2952 1.9242,-0.6402 2.925,-0.825 63.6876,-11.616 82.2,38.275 82.2,38.275 -15.5328,-20.244 -43.11676,-25.5948 -69.25,-19.65 -0.99048,0.2232 -1.95984,0.543 -2.925,0.825 l -0.725,0.225 c -0.94224,0.288 -1.87048,0.5784 -2.8,0.9 l -0.375,0.15 c -0.83196,0.2904 -1.65936,0.607 -2.475,0.925 l -0.7,0.275 c -0.9,0.3564 -1.7942,0.7148 -2.675,1.1 l -0.55,0.225 c -0.75756,0.3432 -1.49904,0.6912 -2.25,1.05 l -0.65,0.325 c -0.58596,0.282 -1.1484,0.5738 -1.725,0.875 -0.39132,0.2004 -0.78968,0.415 -1.175,0.625 -0.70596,0.3828 -1.40724,0.773 -2.1,1.175 l -0.7,0.375 c -0.92292,0.54 -1.82836,1.1074 -2.725,1.675 l -0.725,0.5 c -0.65064,0.4212 -1.30872,0.837 -1.95,1.275 l -0.6,0.45 c -0.62484,0.4368 -1.2476,0.875 -1.85,1.325 l -0.8,0.6 c -0.55368,0.4236 -1.10292,0.8608 -1.65,1.3 l -0.75,0.6 c -0.69612,0.57 -1.37032,1.1358 -2.05,1.725 l -0.225,0.175 c -0.73176,0.6444 -1.46292,1.315 -2.175,1.975 l -0.6,0.6 c -0.52452,0.5016 -1.03868,1.0066 -1.55,1.525 l -0.625,0.6 c -0.64776,0.6648 -1.27852,1.3422 -1.9,2.025 l -0.1,0.1 c -0.65712,0.7212 -1.29356,1.456 -1.925,2.2 l -0.5,0.6 c -0.47304,0.5664 -0.9434,1.1478 -1.4,1.725 l -0.5,0.625 c -0.5508,0.7092 -1.10708,1.4312 -1.625,2.15 -14.507404,19.788 -19.721444,47.0876 -8.125,69.5 z"
                                                                  id="signet" /></g></svg>
